<?xml version="1.0" encoding="utf-8"?>
<!-- Generator: Adobe Illustrator 27.4.1, SVG Export Plug-In . SVG Version: 6.00 Build 0)  -->
<svg version="1.1" id="Layer_1" xmlns="http://www.w3.org/2000/svg" xmlns:xlink="http://www.w3.org/1999/xlink" x="0px" y="0px"
	 viewBox="0 0 226 41.6" style="enable-background:new 0 0 226 41.6;" xml:space="preserve">
<style type="text/css">
	.st0{fill:#902F3B;}
	.st1{fill:#6C232C;}
	.st2{fill:#A65962;}
	.st3{fill:#303030;}
	.st4{fill:#FFFFFF;}
	.st5{fill:#7DC3EA;}
	.st6{fill:#396CAA;}
	.st7{fill:url(#SVGID_1_);}
	.st8{fill:url(#SVGID_00000112592776110175000740000003469832515451702197_);}
	.st9{fill:#D4ECFF;}
	.st10{fill:url(#SVGID_00000119090230786576926230000000191597621548102284_);}
	.st11{fill:url(#SVGID_00000011014408355445285130000000583304980618898579_);}
	.st12{fill:#5793CE;}
	.st13{fill:url(#SVGID_00000166659820762006918810000010246781532690341299_);}
	.st14{fill:url(#SVGID_00000073681530910402350170000014374597263970553772_);}
	.st15{fill:url(#SVGID_00000096022641184765945630000014799434840096196523_);}
</style>
<g>
	<rect x="691" y="-450.7" class="st0" width="185" height="63"/>
</g>
<g>
	<rect x="592" y="-450.7" class="st1" width="92" height="63"/>
</g>
<g>
	<rect x="891" y="-450.7" class="st2" width="93" height="63"/>
</g>
<text transform="matrix(1 0 0 1 656.624 -229.4832)" style="font-family:'MyriadPro-Regular'; font-size:12px;">RUP</text>
<text transform="matrix(1 0 0 1 653.7705 -102.2732)" style="font-family:'MyriadPro-Regular'; font-size:12px;">Repositório da UNIVERSIDADE POLITÉCNICA (RUP)</text>
<text transform="matrix(1 0 0 1 813.7515 -216.4388)" style="font-family:'Neris-BlackItalic'; font-size:12px;">Repositório</text>
<text transform="matrix(1 0 0 1 705.7529 -21.0242)" style="font-family:'Neris-BlackItalic'; font-size:22.9089px;">Repositório</text>
<text transform="matrix(1 0 0 1 590.7515 116.5612)" style="font-family:'Neris-BlackItalic'; font-size:12px;">Repositório</text>
<text transform="matrix(1 0 0 1 868.3696 -239.6936)" style="font-family:'Neris-BlackItalic'; font-size:12px;">da Universidade Politécnica</text>
<text transform="matrix(1 0 0 1 721.3696 -8.6937)" style="font-family:'Neris-LightItalic'; font-size:12px;">da Universidade Politécnica</text>
<text transform="matrix(1 0 0 1 963.7529 -30.0242)" style="font-family:'Neris-BlackItalic'; font-size:22.9089px;">Repositório</text>
<text transform="matrix(1 0 0 1 994.3696 -17.6937)" style="font-family:'Neris-LightItalic'; font-size:12px;">Universidade Politécnica</text>
<text transform="matrix(1 0 0 1 670.7529 35.9758)" style="font-family:'Neris-BlackItalic'; font-size:22.9089px;">Repositório</text>
<text transform="matrix(1 0 0 1 686.3696 48.3063)" style="font-family:'Neris-LightItalic'; font-size:12px;">da Universidade Politécnica</text>
<text transform="matrix(1 0 0 1 588.3696 127.3064)" style="font-family:'Neris-LightItalic'; font-size:12px;">Universidade Politécnica</text>
<text transform="matrix(1 0 0 1 771.085 188.341)" class="st0" style="font-family:'Neris-BlackItalic'; font-size:32.257px;">Repositório</text>
<text transform="matrix(1 0 0 1 767.3711 207.757)" style="font-family:'Neris-LightItalic'; font-size:21.4354px;">Universidade Politécnica</text>
<g>
	<g>
		<path class="st0" d="M14.65,6.89c3.54,0,5.37,2.07,5.37,4.93c0,2.86-1.8,4.3-3.75,5.09c-0.38,0.15-0.41,0.3-0.13,0.48
			c0.99,0.68,1.44,1.8,1.72,2.78l1.04,4.3c0.05,0.23-0.08,0.35-0.3,0.35h-3.42c-0.2,0-0.33-0.1-0.38-0.28l-0.63-2.68
			c-0.53-2.2-1.37-3.39-4.18-3.39H9.31l-1.06,6.05c-0.03,0.2-0.15,0.3-0.35,0.3H4.45c-0.23,0-0.33-0.13-0.3-0.35L7.18,7.19
			c0.03-0.2,0.15-0.3,0.35-0.3H14.65z M12.35,14.91c2.02,0,3.54-1.01,3.54-2.56c0-1.19-0.76-1.87-1.92-1.87h-3.24l-0.78,4.43H12.35z
			"/>
		<path class="st0" d="M33.63,13.82c0.23,0,0.33,0.13,0.3,0.35l-0.53,2.91c-0.03,0.2-0.15,0.3-0.35,0.3h-6.23l-0.71,3.87h8.28
			c0.23,0,0.33,0.13,0.3,0.35l-0.51,2.91c-0.03,0.2-0.15,0.3-0.35,0.3H21.76c-0.23,0-0.33-0.13-0.3-0.35l3.04-17.29
			c0.03-0.2,0.15-0.3,0.35-0.3h12.2c0.25,0,0.35,0.15,0.25,0.38l-1.34,2.96c-0.08,0.18-0.18,0.25-0.38,0.25h-7.54l-0.61,3.34H33.63z
			"/>
		<path class="st0" d="M47.14,6.89c3.49,0,5.57,1.97,5.54,5.31c0,4.35-3.11,6.91-8.35,6.91h-2.28l-0.94,5.42
			c-0.03,0.2-0.15,0.3-0.35,0.3h-3.44c-0.23,0-0.33-0.13-0.3-0.35l3.04-17.29c0.03-0.2,0.15-0.3,0.35-0.3H47.14z M42.69,15.54h2.08
			c2.38,0,3.8-1.11,3.8-3.04c0-1.29-0.68-2.02-1.85-2.02H43.6L42.69,15.54z"/>
		<path class="st0" d="M70.81,13.69c0,4.56-2.58,11.41-9.62,11.41c-4.38,0-6.88-2.71-6.88-7.11c0-4.58,2.56-11.39,9.64-11.39
			C68.3,6.61,70.81,9.29,70.81,13.69z M58.43,17.84c0,2.28,1.04,3.62,2.91,3.62c3.85,0,5.34-4.83,5.34-7.64
			c0-2.3-1.04-3.54-2.88-3.54C59.87,10.28,58.43,15.01,58.43,17.84z"/>
		<path class="st0" d="M77.49,16.91c-2.73-1.09-3.9-2.07-3.9-4.18c0-2.86,1.77-6.12,7.36-6.12c1.32,0,2.58,0.25,4.07,0.78l1.57,0.53
			c0.2,0.08,0.28,0.25,0.15,0.43l-1.44,2.71c-0.1,0.18-0.25,0.25-0.43,0.18l-1.42-0.48c-0.99-0.33-1.87-0.48-2.81-0.48
			c-1.85,0-2.94,0.68-2.94,1.9c0,0.61,0.48,1.04,1.77,1.54l2,0.78c2.81,1.11,4.13,2.25,4.13,4.4c0,2.91-1.59,6.2-7.54,6.2
			c-1.44,0-2.96-0.3-4.81-0.94l-1.62-0.53c-0.2-0.08-0.28-0.25-0.18-0.46l1.39-2.68c0.1-0.18,0.25-0.25,0.43-0.18l1.49,0.51
			c1.29,0.43,2.4,0.63,3.64,0.63c1.64,0,3.06-0.43,3.06-1.85c0-0.73-0.48-1.32-1.85-1.85L77.49,16.91z"/>
		<path class="st0" d="M91.53,24.53c-0.03,0.2-0.15,0.3-0.35,0.3h-3.44c-0.23,0-0.33-0.13-0.3-0.35l3.04-17.29
			c0.03-0.2,0.15-0.3,0.35-0.3h3.44c0.23,0,0.33,0.13,0.3,0.35L91.53,24.53z"/>
		<path class="st0" d="M111.35,10.18c-0.03,0.2-0.15,0.3-0.35,0.3h-4.99l-2.48,14.05c-0.03,0.2-0.15,0.3-0.35,0.3h-3.44
			c-0.23,0-0.33-0.13-0.3-0.35l2.48-14H96.9c-0.23,0-0.33-0.13-0.3-0.35l0.53-2.94c0.03-0.2,0.15-0.3,0.35-0.3h14.1
			c0.23,0,0.33,0.13,0.3,0.35L111.35,10.18z"/>
		<path class="st0" d="M128.23,13.69c0,4.56-2.58,11.41-9.62,11.41c-4.38,0-6.88-2.71-6.88-7.11c0-4.58,2.56-11.39,9.64-11.39
			C125.72,6.61,128.23,9.29,128.23,13.69z M115.85,17.84c0,2.28,1.04,3.62,2.91,3.62c3.85,0,5.34-4.83,5.34-7.64
			c0-2.3-1.04-3.54-2.88-3.54C117.3,10.28,115.85,15.01,115.85,17.84z M126.86,1.37c0.3,0,0.38,0.2,0.15,0.41l-3.39,3.04
			c-0.13,0.1-0.25,0.15-0.4,0.15h-3.09c-0.28,0-0.38-0.18-0.2-0.4l2.2-2.99c0.1-0.15,0.23-0.2,0.4-0.2H126.86z"/>
		<path class="st0" d="M139.84,6.89c3.54,0,5.37,2.07,5.37,4.93c0,2.86-1.8,4.3-3.75,5.09c-0.38,0.15-0.41,0.3-0.13,0.48
			c0.99,0.68,1.44,1.8,1.72,2.78l1.04,4.3c0.05,0.23-0.08,0.35-0.3,0.35h-3.42c-0.2,0-0.33-0.1-0.38-0.28l-0.63-2.68
			c-0.53-2.2-1.37-3.39-4.18-3.39h-0.68l-1.06,6.05c-0.03,0.2-0.15,0.3-0.35,0.3h-3.44c-0.23,0-0.33-0.13-0.3-0.35l3.04-17.29
			c0.03-0.2,0.15-0.3,0.35-0.3H139.84z M137.54,14.91c2.02,0,3.54-1.01,3.54-2.56c0-1.19-0.76-1.87-1.92-1.87h-3.24l-0.78,4.43
			H137.54z"/>
		<path class="st0" d="M150.75,24.53c-0.03,0.2-0.15,0.3-0.35,0.3h-3.44c-0.23,0-0.33-0.13-0.3-0.35l3.04-17.29
			c0.03-0.2,0.15-0.3,0.35-0.3h3.44c0.23,0,0.33,0.13,0.3,0.35L150.75,24.53z"/>
		<path class="st0" d="M171.4,13.69c0,4.56-2.58,11.41-9.62,11.41c-4.38,0-6.88-2.71-6.88-7.11c0-4.58,2.56-11.39,9.64-11.39
			C168.9,6.61,171.4,9.29,171.4,13.69z M159.03,17.84c0,2.28,1.04,3.62,2.91,3.62c3.85,0,5.34-4.83,5.34-7.64
			c0-2.3-1.04-3.54-2.88-3.54C160.47,10.28,159.03,15.01,159.03,17.84z"/>
	</g>
	<g>
		<path class="st3" d="M10.58,35.54c-0.49,2.98-2.35,4.69-5.03,4.69c-2.74,0-4.04-1.77-3.55-4.73l1.13-6.88
			c0.02-0.08,0.07-0.13,0.15-0.13H4.1c0.1,0,0.15,0.07,0.13,0.17l-1.13,6.88c-0.37,2.32,0.56,3.65,2.56,3.65
			c2.03,0,3.43-1.38,3.8-3.68l1.13-6.88c0.02-0.08,0.07-0.13,0.15-0.13h0.82c0.1,0,0.15,0.07,0.13,0.17L10.58,35.54z"/>
		<path class="st3" d="M21.51,39.93c-0.02,0.08-0.07,0.13-0.15,0.13h-1.01c-0.08,0-0.15-0.03-0.17-0.13
			c-0.17-0.5-0.42-1.13-0.67-1.63l-3.7-7c-0.17-0.35-0.3-0.76-0.39-1.03c-0.05-0.15-0.24-0.1-0.24,0.07
			c0.02,0.42-0.03,0.99-0.12,1.6l-1.31,7.99c-0.02,0.08-0.07,0.13-0.15,0.13h-0.81c-0.1,0-0.15-0.07-0.13-0.17l1.83-11.27
			c0.02-0.08,0.07-0.13,0.15-0.13h1.01c0.08,0,0.15,0.03,0.17,0.13c0.15,0.47,0.4,1.11,0.67,1.61l3.67,6.96
			c0.19,0.37,0.34,0.79,0.42,1.08c0.05,0.15,0.22,0.08,0.22-0.07c-0.02-0.42,0.05-1.01,0.13-1.6l1.31-7.99
			c0.02-0.08,0.07-0.13,0.15-0.13h0.81c0.1,0,0.15,0.07,0.13,0.17L21.51,39.93z"/>
		<path class="st3" d="M25.57,39.93c-0.02,0.08-0.07,0.13-0.15,0.13h-0.81c-0.1,0-0.15-0.07-0.13-0.17l1.83-11.27
			c0.02-0.08,0.07-0.13,0.15-0.13h0.81c0.1,0,0.15,0.07,0.13,0.17L25.57,39.93z"/>
		<path class="st3" d="M34.86,36.97c-0.54,0.94-1.06,2.03-1.45,2.98c-0.03,0.08-0.08,0.12-0.19,0.12h-0.94
			c-0.1,0-0.15-0.05-0.17-0.15c-0.07-0.94-0.22-2.02-0.44-2.94l-2.1-8.31c-0.03-0.1,0.02-0.17,0.12-0.17h0.82
			c0.08,0,0.15,0.05,0.17,0.13l1.95,7.57c0.17,0.77,0.27,1.58,0.27,2.1c0,0.15,0.15,0.15,0.2,0c0.19-0.52,0.52-1.33,0.98-2.12
			l4.37-7.59c0.05-0.07,0.1-0.1,0.19-0.1h0.89c0.12,0,0.15,0.08,0.1,0.19L34.86,36.97z"/>
		<path class="st3" d="M47.32,33.62c0.1,0,0.15,0.07,0.13,0.17l-0.13,0.71c-0.02,0.08-0.07,0.13-0.15,0.13h-5.23l-0.71,4.42h6.44
			c0.1,0,0.15,0.07,0.13,0.17l-0.13,0.71c-0.02,0.08-0.07,0.13-0.15,0.13H40.1c-0.1,0-0.15-0.07-0.13-0.17l1.83-11.27
			c0.02-0.08,0.07-0.13,0.15-0.13h7.37c0.12,0,0.17,0.07,0.12,0.19l-0.32,0.71c-0.03,0.08-0.08,0.12-0.17,0.12h-6.19l-0.64,4.12
			H47.32z"/>
		<path class="st3" d="M56.5,28.49c2,0,3.06,0.99,3.06,2.66c0,1.63-0.91,2.86-2.94,3.52c-0.29,0.08-0.27,0.2-0.12,0.29
			c0.76,0.4,1.18,1.18,1.41,2.05l0.76,2.89c0.03,0.1-0.02,0.17-0.12,0.17h-0.84c-0.08,0-0.15-0.05-0.17-0.13l-0.66-2.52
			c-0.39-1.48-1.26-2.27-2.99-2.27h-1.93l-0.79,4.79c-0.02,0.08-0.07,0.13-0.15,0.13h-0.81c-0.1,0-0.15-0.07-0.13-0.17l1.83-11.27
			c0.02-0.08,0.07-0.13,0.15-0.13H56.5z M54.35,34.13c2.86,0,4.07-1.33,4.07-2.84c0-1.13-0.72-1.78-2.07-1.78h-3.48l-0.74,4.63
			H54.35z"/>
		<path class="st3" d="M64.29,34.21c-1.48-0.57-2.09-1.31-2.09-2.42c0-1.55,1.04-3.48,4.14-3.48c0.99,0,1.8,0.22,2.51,0.44
			l0.81,0.25c0.1,0.03,0.12,0.1,0.08,0.2l-0.35,0.69c-0.05,0.08-0.12,0.12-0.2,0.08l-0.76-0.27c-0.57-0.19-1.35-0.34-2.15-0.34
			c-1.73,0-2.93,0.89-2.93,2.29c0,0.61,0.27,1.18,1.45,1.63l2.19,0.87c1.31,0.52,2.17,1.21,2.17,2.44c0,1.61-1.28,3.63-4.56,3.63
			c-1.26,0-2.19-0.25-3.08-0.59l-0.64-0.25c-0.1-0.03-0.12-0.1-0.08-0.19l0.37-0.69c0.05-0.08,0.12-0.12,0.2-0.08l0.59,0.25
			c0.72,0.29,1.53,0.5,2.72,0.5c2.12,0,3.33-1.21,3.33-2.4c0-0.82-0.64-1.35-1.5-1.68L64.29,34.21z"/>
		<path class="st3" d="M72.21,39.93c-0.02,0.08-0.07,0.13-0.15,0.13h-0.81c-0.1,0-0.15-0.07-0.13-0.17l1.83-11.27
			c0.02-0.08,0.07-0.13,0.15-0.13h0.81c0.1,0,0.15,0.07,0.13,0.17L72.21,39.93z"/>
		<path class="st3" d="M80.89,28.49c2.61,0,4.07,1.63,4.07,4.39c0,2.89-1.56,7.18-5.89,7.18h-3.75c-0.1,0-0.15-0.07-0.13-0.17
			l1.83-11.27c0.02-0.08,0.07-0.13,0.15-0.13H80.89z M76.43,39.05h2.72c3.53,0,4.66-3.83,4.66-6.17c0-2.15-1.06-3.38-3.03-3.38
			h-2.81L76.43,39.05z"/>
		<path class="st3" d="M88.07,37.12l-1.65,2.84c-0.05,0.07-0.1,0.1-0.19,0.1h-0.91c-0.13,0-0.17-0.08-0.12-0.18l4.93-8.36
			c0.54-0.94,1.08-1.99,1.5-2.91c0.03-0.08,0.08-0.12,0.17-0.12h0.99c0.1,0,0.15,0.05,0.17,0.13c0.1,0.92,0.29,1.95,0.47,2.89
			l1.98,8.38c0.02,0.1-0.03,0.17-0.13,0.17h-0.82c-0.08,0-0.15-0.05-0.17-0.13l-0.66-2.81H88.07z M93.4,36.11l-0.89-3.73
			c-0.17-0.76-0.29-1.65-0.32-2.24c0-0.15-0.15-0.15-0.22,0c-0.22,0.59-0.66,1.46-1.11,2.24l-2.2,3.73H93.4z"/>
		<path class="st3" d="M103.35,28.49c2.61,0,4.07,1.63,4.07,4.39c0,2.89-1.56,7.18-5.89,7.18h-3.75c-0.1,0-0.15-0.07-0.13-0.17
			l1.83-11.27c0.02-0.08,0.07-0.13,0.15-0.13H103.35z M98.9,39.05h2.72c3.53,0,4.66-3.83,4.66-6.17c0-2.15-1.06-3.38-3.03-3.38
			h-2.81L98.9,39.05z"/>
		<path class="st3" d="M116.19,33.62c0.1,0,0.15,0.07,0.13,0.17l-0.13,0.71c-0.02,0.08-0.07,0.13-0.15,0.13h-5.23l-0.71,4.42h6.44
			c0.1,0,0.15,0.07,0.13,0.17l-0.13,0.71c-0.02,0.08-0.07,0.13-0.15,0.13h-7.42c-0.1,0-0.15-0.07-0.13-0.17l1.83-11.27
			c0.02-0.08,0.07-0.13,0.15-0.13h7.37c0.12,0,0.17,0.07,0.12,0.19l-0.32,0.71c-0.03,0.08-0.08,0.12-0.17,0.12h-6.19l-0.64,4.12
			H116.19z"/>
		<path class="st3" d="M128.6,28.49c2.34,0,3.55,1.26,3.3,3.4c-0.27,2.42-2.34,3.72-5.6,3.72h-1.93l-0.71,4.32
			c-0.02,0.08-0.07,0.13-0.15,0.13h-0.81c-0.1,0-0.15-0.07-0.13-0.17l1.83-11.27c0.02-0.08,0.07-0.13,0.15-0.13H128.6z M124.53,34.6
			h1.87c2.52,0,4.15-0.96,4.37-2.71c0.22-1.51-0.64-2.39-2.29-2.39h-3.13L124.53,34.6z"/>
		<path class="st3" d="M143.23,32.81c0,2.93-1.53,7.42-5.89,7.42c-2.62,0-4.09-1.7-4.09-4.49c0-2.93,1.53-7.43,5.9-7.43
			C141.76,28.31,143.23,30,143.23,32.81z M134.4,35.74c0,2.19,1.04,3.45,2.99,3.45c3.57,0,4.71-3.97,4.71-6.36
			c0-2.22-1.04-3.46-2.99-3.46C135.56,29.36,134.4,33.3,134.4,35.74z"/>
		<path class="st3" d="M151.64,39.04c0.1,0,0.15,0.07,0.13,0.17l-0.13,0.72c-0.02,0.08-0.07,0.13-0.15,0.13h-6.71
			c-0.1,0-0.15-0.07-0.13-0.17l1.83-11.27c0.02-0.08,0.07-0.13,0.15-0.13h0.81c0.1,0,0.15,0.07,0.13,0.17l-1.67,10.38H151.64z"/>
		<path class="st3" d="M155.18,39.93c-0.02,0.08-0.07,0.13-0.15,0.13h-0.81c-0.1,0-0.15-0.07-0.13-0.17l1.83-11.27
			c0.02-0.08,0.07-0.13,0.15-0.13h0.81c0.1,0,0.15,0.07,0.13,0.17L155.18,39.93z"/>
		<path class="st3" d="M168.18,29.36c-0.02,0.08-0.07,0.13-0.15,0.13h-3.85l-1.68,10.43c-0.02,0.08-0.07,0.13-0.15,0.13h-0.82
			c-0.1,0-0.15-0.07-0.13-0.17l1.68-10.39h-3.82c-0.1,0-0.15-0.07-0.13-0.17l0.12-0.71c0.02-0.08,0.07-0.13,0.15-0.13h8.78
			c0.1,0,0.15,0.07,0.13,0.17L168.18,29.36z"/>
		<path class="st3" d="M176.02,33.62c0.1,0,0.15,0.07,0.13,0.17l-0.13,0.71c-0.02,0.08-0.07,0.13-0.15,0.13h-5.23l-0.71,4.42h6.44
			c0.1,0,0.15,0.07,0.13,0.17l-0.13,0.71c-0.02,0.08-0.07,0.13-0.15,0.13h-7.42c-0.1,0-0.15-0.07-0.13-0.17l1.83-11.27
			c0.02-0.08,0.07-0.13,0.15-0.13h7.37c0.12,0,0.17,0.07,0.12,0.19l-0.32,0.71c-0.03,0.08-0.08,0.12-0.17,0.12h-6.19l-0.64,4.12
			H176.02z M176.88,25.34c0.15,0,0.19,0.1,0.07,0.18l-1.9,1.55c-0.07,0.05-0.12,0.07-0.19,0.07h-0.81c-0.13,0-0.17-0.08-0.08-0.18
			l1.58-1.53c0.07-0.07,0.12-0.08,0.19-0.08H176.88z"/>
		<path class="st3" d="M185.35,39.84c-0.91,0.32-1.48,0.39-2.44,0.39c-2.61,0-4.07-1.7-4.07-4.51c0-2.93,1.53-7.42,5.95-7.42
			c0.94,0,1.51,0.17,2.35,0.47l0.64,0.24c0.1,0.03,0.12,0.1,0.07,0.2l-0.35,0.67c-0.05,0.07-0.12,0.1-0.2,0.07l-0.64-0.24
			c-0.67-0.25-1.14-0.35-1.97-0.35c-3.53,0-4.71,3.94-4.71,6.36c0,2.24,1.04,3.46,3.04,3.46c0.79-0.02,1.35-0.08,2.14-0.35
			l0.74-0.25c0.1-0.03,0.17,0,0.19,0.1l0.13,0.72c0.02,0.08-0.02,0.15-0.1,0.18L185.35,39.84z"/>
		<path class="st3" d="M197.58,39.93c-0.02,0.08-0.07,0.13-0.15,0.13h-1.01c-0.08,0-0.15-0.03-0.17-0.13
			c-0.17-0.5-0.42-1.13-0.67-1.63l-3.7-7c-0.17-0.35-0.3-0.76-0.39-1.03c-0.05-0.15-0.24-0.1-0.24,0.07
			c0.02,0.42-0.03,0.99-0.12,1.6l-1.31,7.99c-0.02,0.08-0.07,0.13-0.15,0.13h-0.81c-0.1,0-0.15-0.07-0.13-0.17l1.83-11.27
			c0.02-0.08,0.07-0.13,0.15-0.13h1.01c0.08,0,0.15,0.03,0.17,0.13c0.15,0.47,0.4,1.11,0.67,1.61l3.67,6.96
			c0.19,0.37,0.34,0.79,0.42,1.08c0.05,0.15,0.22,0.08,0.22-0.07c-0.02-0.42,0.05-1.01,0.13-1.6l1.31-7.99
			c0.02-0.08,0.07-0.13,0.15-0.13h0.81c0.1,0,0.15,0.07,0.13,0.17L197.58,39.93z"/>
		<path class="st3" d="M201.65,39.93c-0.02,0.08-0.07,0.13-0.15,0.13h-0.81c-0.1,0-0.15-0.07-0.13-0.17l1.83-11.27
			c0.02-0.08,0.07-0.13,0.15-0.13h0.81c0.1,0,0.15,0.07,0.13,0.17L201.65,39.93z"/>
		<path class="st3" d="M211.39,39.84c-0.91,0.32-1.48,0.39-2.44,0.39c-2.61,0-4.07-1.7-4.07-4.51c0-2.93,1.53-7.42,5.95-7.42
			c0.94,0,1.51,0.17,2.35,0.47l0.64,0.24c0.1,0.03,0.12,0.1,0.07,0.2l-0.35,0.67c-0.05,0.07-0.12,0.1-0.2,0.07l-0.64-0.24
			c-0.67-0.25-1.14-0.35-1.97-0.35c-3.53,0-4.71,3.94-4.71,6.36c0,2.24,1.04,3.46,3.04,3.46c0.79-0.02,1.35-0.08,2.14-0.35
			l0.74-0.25c0.1-0.03,0.17,0,0.19,0.1l0.13,0.72c0.02,0.08-0.02,0.15-0.1,0.18L211.39,39.84z"/>
		<path class="st3" d="M216.75,37.12l-1.65,2.84c-0.05,0.07-0.1,0.1-0.19,0.1h-0.91c-0.13,0-0.17-0.08-0.12-0.18l4.93-8.36
			c0.54-0.94,1.08-1.99,1.5-2.91c0.03-0.08,0.08-0.12,0.17-0.12h0.99c0.1,0,0.15,0.05,0.17,0.13c0.1,0.92,0.29,1.95,0.47,2.89
			l1.98,8.38c0.02,0.1-0.03,0.17-0.13,0.17h-0.82c-0.08,0-0.15-0.05-0.17-0.13l-0.66-2.81H216.75z M222.08,36.11l-0.89-3.73
			c-0.17-0.76-0.29-1.65-0.32-2.24c0-0.15-0.15-0.15-0.22,0c-0.22,0.59-0.66,1.46-1.11,2.24l-2.2,3.73H222.08z"/>
	</g>
</g>
<text transform="matrix(1 0 0 1 848.085 87.9416)" style="font-family:'Neris-BlackItalic'; font-size:25.5033px;">Repositório</text>
<text transform="matrix(1 0 0 1 844.3711 105.757)" style="font-family:'Neris-LightItalic'; font-size:21.4354px;">Universidade Politécnica</text>
<g>
	
		<rect x="515.85" y="211.45" transform="matrix(0.7071 -0.7071 0.7071 0.7071 -1.1283 432.692)" class="st2" width="11.79" height="12.52"/>
</g>
<g>
	
		<rect x="515.7" y="207.73" transform="matrix(0.7071 -0.7071 0.7071 0.7071 1.4586 431.4974)" class="st0" width="11.79" height="12.52"/>
</g>
<g>
	
		<rect x="515.5" y="202.77" transform="matrix(0.7071 -0.7071 0.7071 0.7071 4.9078 429.9047)" class="st1" width="11.79" height="12.52"/>
</g>
<g>
	<g>
		<g>
			<polygon class="st2" points="559.03,198.3 545.57,190.53 559.03,182.75 572.49,190.53 			"/>
		</g>
		<path class="st4" d="M559.03,193.49c-0.18,0-0.35-0.05-0.51-0.14l-13.46-7.77c-0.32-0.18-0.51-0.52-0.51-0.89s0.2-0.7,0.51-0.89
			l13.46-7.77c0.32-0.18,0.71-0.18,1.02,0l13.46,7.77c0.32,0.18,0.51,0.52,0.51,0.89s-0.2,0.7-0.51,0.89l-13.46,7.77
			C559.39,193.44,559.21,193.49,559.03,193.49z M547.62,184.69l11.42,6.59l11.42-6.59l-11.42-6.59L547.62,184.69z"/>
		<g>
			<polygon class="st1" points="572.49,178.62 559.03,186.39 559.03,170.84 572.49,163.07 			"/>
		</g>
		<g>
			<polygon class="st2" points="559.03,170.84 545.57,163.07 559.03,155.3 572.49,163.07 			"/>
		</g>
		<g>
			<polygon class="st0" points="559.03,186.39 545.57,178.62 545.57,163.07 559.03,170.84 			"/>
		</g>
	</g>
	<polygon class="st4" points="554.18,177.99 550.42,175.82 550.42,171.47 554.18,173.64 	"/>
</g>
<g>
	<polygon class="st5" points="748.73,309.66 780.51,292.85 771.25,287.95 739.47,304.76 	"/>
	<path class="st4" d="M748.73,305.79c0.08,0,0.17-0.02,0.24-0.06l31.78-16.81c0.15-0.08,0.24-0.23,0.24-0.39
		c0-0.16-0.09-0.31-0.24-0.39l-9.26-4.9c-0.15-0.08-0.34-0.08-0.49,0l-31.78,16.81c-0.15,0.08-0.24,0.23-0.24,0.39
		c0,0.16,0.09,0.31,0.24,0.39l9.26,4.9C748.56,305.77,748.65,305.79,748.73,305.79z M779.53,288.53l-30.8,16.29l-8.28-4.39
		l30.8-16.29L779.53,288.53z"/>
	<g>
		<g>
			<g>
				<path class="st6" d="M765.69,291.98c0.22,0,0.39-0.16,0.39-0.36v-11.38c0-0.2-0.18-0.36-0.39-0.36s-0.39,0.16-0.39,0.36v11.38
					C765.29,291.82,765.47,291.98,765.69,291.98z"/>
				<g>
					
						<radialGradient id="SVGID_1_" cx="247.8421" cy="130.4049" r="1.9021" gradientTransform="matrix(-1.9078 0 0 1.7501 1240.702 58.0396)" gradientUnits="userSpaceOnUse">
						<stop  offset="0" style="stop-color:#699DD1"/>
						<stop  offset="0.2662" style="stop-color:#6396CC"/>
						<stop  offset="0.6412" style="stop-color:#5184BD"/>
						<stop  offset="1" style="stop-color:#396CAA"/>
					</radialGradient>
					<path class="st7" d="M767.63,278.95v7.69l0,0c0,0.26-0.19,0.53-0.57,0.73c-0.76,0.4-1.99,0.4-2.75,0
						c-0.38-0.2-0.57-0.46-0.57-0.73v-7.69H767.63z"/>
					<g>
						<path class="st6" d="M767.63,280.22v2.6c-1.14,0.48-2.74,0.48-3.88,0v-2.6C764.88,279.74,766.49,279.74,767.63,280.22z"/>
						
							<radialGradient id="SVGID_00000165226823717389970390000001741773188230306985_" cx="246.7784" cy="128.3632" r="3.0076" gradientTransform="matrix(-1.9078 0 0 1.7501 1240.702 58.0396)" gradientUnits="userSpaceOnUse">
							<stop  offset="0" style="stop-color:#699DD1"/>
							<stop  offset="0.2662" style="stop-color:#6396CC"/>
							<stop  offset="0.6412" style="stop-color:#5184BD"/>
							<stop  offset="1" style="stop-color:#396CAA"/>
						</radialGradient>
						<path style="fill:url(#SVGID_00000165226823717389970390000001741773188230306985_);" d="M762.54,268.24h6.29v12.06l0,0
							c0,0.43-0.31,0.85-0.92,1.18c-1.23,0.65-3.22,0.65-4.45,0c-0.61-0.33-0.92-0.75-0.92-1.18l0,0V268.24z"/>
					</g>
				</g>
			</g>
			<path class="st9" d="M766.23,285.47c0,0.35,0.27,0.5,0.6,0.32c0.33-0.18,0.6-0.61,0.6-0.96c0-0.35-0.27-0.5-0.6-0.32
				C766.5,284.69,766.23,285.12,766.23,285.47z"/>
		</g>
		<g>
			<g>
				<path class="st6" d="M753.48,298.45c0.22,0,0.39-0.16,0.39-0.36v-11.38c0-0.2-0.18-0.36-0.39-0.36s-0.39,0.16-0.39,0.36v11.38
					C753.09,298.29,753.27,298.45,753.48,298.45z"/>
				<g>
					
						<radialGradient id="SVGID_00000076577882465413392980000016725132826983809454_" cx="254.2379" cy="134.1018" r="1.9021" gradientTransform="matrix(-1.9078 0 0 1.7501 1240.702 58.0396)" gradientUnits="userSpaceOnUse">
						<stop  offset="0" style="stop-color:#699DD1"/>
						<stop  offset="0.2662" style="stop-color:#6396CC"/>
						<stop  offset="0.6412" style="stop-color:#5184BD"/>
						<stop  offset="1" style="stop-color:#396CAA"/>
					</radialGradient>
					<path style="fill:url(#SVGID_00000076577882465413392980000016725132826983809454_);" d="M755.43,285.42v7.69l0,0
						c0,0.26-0.19,0.53-0.57,0.73c-0.76,0.4-1.99,0.4-2.75,0c-0.38-0.2-0.57-0.46-0.57-0.73v-7.69H755.43z"/>
					<g>
						<path class="st6" d="M755.43,286.69v2.6c-1.14,0.48-2.74,0.48-3.88,0v-2.6C752.68,286.21,754.29,286.21,755.43,286.69z"/>
						
							<radialGradient id="SVGID_00000099626328797530178700000011815987274404919187_" cx="253.1741" cy="132.0601" r="3.0076" gradientTransform="matrix(-1.9078 0 0 1.7501 1240.702 58.0396)" gradientUnits="userSpaceOnUse">
							<stop  offset="0" style="stop-color:#699DD1"/>
							<stop  offset="0.2662" style="stop-color:#6396CC"/>
							<stop  offset="0.6412" style="stop-color:#5184BD"/>
							<stop  offset="1" style="stop-color:#396CAA"/>
						</radialGradient>
						<path style="fill:url(#SVGID_00000099626328797530178700000011815987274404919187_);" d="M750.34,274.71h6.29v12.06l0,0
							c0,0.43-0.31,0.85-0.92,1.18c-1.23,0.65-3.22,0.65-4.45,0c-0.61-0.33-0.92-0.75-0.92-1.18l0,0V274.71z"/>
					</g>
				</g>
			</g>
			<path class="st9" d="M754.03,291.94c0,0.35,0.27,0.5,0.6,0.32c0.33-0.18,0.6-0.61,0.6-0.96s-0.27-0.5-0.6-0.32
				C754.3,291.16,754.03,291.59,754.03,291.94z"/>
		</g>
		<g>
			<g>
				<path class="st12" d="M777.75,259.51l-8.35-4.41c0,0,0.31,4.4,0.31,4.41c0,0.01,4.8,1.36,4.8,1.36L777.75,259.51z"/>
				
					<radialGradient id="SVGID_00000129197401799803828000000015876289960807224194_" cx="256.0183" cy="121.5137" r="10.8245" gradientTransform="matrix(-1.9078 0 0 1.7501 1240.702 58.0396)" gradientUnits="userSpaceOnUse">
					<stop  offset="0" style="stop-color:#699DD1"/>
					<stop  offset="0.2662" style="stop-color:#6396CC"/>
					<stop  offset="0.6412" style="stop-color:#5184BD"/>
					<stop  offset="1" style="stop-color:#396CAA"/>
				</radialGradient>
				<path style="fill:url(#SVGID_00000129197401799803828000000015876289960807224194_);" d="M733,284.89c0-3.09,2.37-6.86,5.29-8.4
					c0.64-0.34,1.24-0.53,1.81-0.61c0.84-4.06,3.92-8.37,7.59-10.32c1.1-0.58,2.15-0.9,3.11-0.96c0.5-4.92,4.23-10.51,8.76-12.91
					c2.37-1.25,4.51-1.4,6.1-0.63l0,0l0.08,0.04c0.04,0.02,0.08,0.04,0.12,0.06l4.93,2.67l-1.64,1.19c1.47,0.59,2.4,2.1,2.4,4.33
					c0,4.12-3.15,9.13-7.04,11.19l-24.01,15.73l-0.74,4.58l-5.19-2.8c0,0-0.01,0-0.01-0.01l-0.03-0.02l0,0
					C733.58,287.49,733,286.41,733,284.89z"/>
				<path class="st12" d="M771.3,257.51l-11.3-6.06c2.19-1.05,4.18-1.14,5.66-0.42l0,0l0.08,0.04c0.04,0.02,0.08,0.04,0.12,0.06
					l4.93,2.67l-1.64,1.19C770.17,255.41,770.93,256.27,771.3,257.51z"/>
				<path class="st12" d="M750.42,275.34l-8.25-4.44c1.41-2.24,3.36-4.21,5.52-5.35c0.29-0.15,0.57-0.28,0.84-0.4l10.49,5.63
					L750.42,275.34z"/>
				<path class="st9" d="M768.45,254.3l-3.68,1.95l-6.73-3.64c0.49-0.35,1-0.67,1.51-0.94c0.82-0.43,1.6-0.73,2.35-0.91
					L768.45,254.3z"/>
				<path class="st9" d="M743.08,269.59l6.58,3.56l-2.29,2.34l-5.98-3.24C741.87,271.33,742.44,270.43,743.08,269.59z"/>
				
					<linearGradient id="SVGID_00000150805258704046603190000007979884414536314255_" gradientUnits="userSpaceOnUse" x1="241.5451" y1="122.4003" x2="263.4084" y2="122.4003" gradientTransform="matrix(-1.9078 0 0 1.7501 1240.702 58.0396)">
					<stop  offset="0" style="stop-color:#D4ECFF"/>
					<stop  offset="0.2385" style="stop-color:#D0EAFE"/>
					<stop  offset="0.4599" style="stop-color:#C5E2F9"/>
					<stop  offset="0.6745" style="stop-color:#B2D6F2"/>
					<stop  offset="0.8837" style="stop-color:#98C4E7"/>
					<stop  offset="1" style="stop-color:#86B8E0"/>
				</linearGradient>
				<path style="fill:url(#SVGID_00000150805258704046603190000007979884414536314255_);" d="M743.46,279.28
					c0.64-0.34,1.24-0.53,1.81-0.61c0.84-4.06,3.92-8.37,7.59-10.32c1.1-0.58,2.15-0.9,3.11-0.96c0.5-4.92,4.23-10.51,8.76-12.91
					c4.87-2.58,8.82-0.49,8.82,4.67c0,0.18-0.01,0.35-0.01,0.53c3.56-1.52,6.35,0.19,6.35,4.06c0,4.12-3.15,9.13-7.04,11.19
					l-29.38,15.56c-2.92,1.55-5.29,0.29-5.29-2.8C738.17,284.59,740.54,280.82,743.46,279.28z"/>
				<g>
					<path class="st4" d="M773.54,259.67c0.01-0.18,0.01-0.35,0.01-0.53c0-0.01,0-0.01,0-0.02c1.97-0.7,3.66-0.4,4.72,0.73
						C777.12,258.98,775.44,258.86,773.54,259.67z"/>
					<path class="st4" d="M743.03,278.89c0.64-0.34,1.24-0.53,1.81-0.61c0.84-4.06,3.92-8.37,7.59-10.32
						c1.1-0.59,2.15-0.9,3.11-0.96c0.5-4.92,4.23-10.51,8.76-12.91c3.03-1.61,5.71-1.4,7.3,0.23c-1.62-1.27-4.09-1.32-6.87,0.15
						c-4.53,2.4-8.26,7.99-8.76,12.91c-0.95,0.07-2,0.38-3.11,0.96c-3.67,1.94-6.75,6.26-7.59,10.32c-0.56,0.08-1.17,0.28-1.81,0.61
						c-2.92,1.55-5.29,5.31-5.29,8.4c0,1.12,0.31,1.99,0.84,2.58c-0.79-0.56-1.27-1.57-1.27-2.97
						C737.74,284.2,740.11,280.44,743.03,278.89z"/>
				</g>
				<g>
					
						<radialGradient id="SVGID_00000132045755224296605330000017674258436872437943_" cx="262.6784" cy="130.5673" r="21.8886" gradientTransform="matrix(-1.9078 0 0 1.7501 1240.702 58.0396)" gradientUnits="userSpaceOnUse">
						<stop  offset="0" style="stop-color:#173D7A"/>
						<stop  offset="1" style="stop-color:#274F89"/>
					</radialGradient>
					<path style="fill:url(#SVGID_00000132045755224296605330000017674258436872437943_);" d="M774.16,260.9l-2.21,0.94l0.11-2.23
						c0.01-0.16,0.01-0.31,0.01-0.47c0-1.99-0.66-3.43-1.85-4.07c-1.19-0.63-2.88-0.43-4.76,0.57c-4.04,2.14-7.57,7.35-8.03,11.87
						l-0.12,1.14l-1.24,0.09c-0.76,0.05-1.6,0.32-2.48,0.79c-3.21,1.7-6.11,5.65-6.88,9.4l-0.19,0.94L745.5,280
						c-0.41,0.06-0.85,0.21-1.3,0.45c-2.47,1.31-4.55,4.62-4.55,7.23c0,0.98,0.3,1.7,0.81,1.97c0.51,0.27,1.34,0.15,2.26-0.34
						l29.38-15.56c3.42-1.81,6.3-6.4,6.3-10.02c0-1.42-0.46-2.5-1.25-2.97c-0.33-0.19-0.72-0.29-1.17-0.29
						C775.44,260.47,774.82,260.62,774.16,260.9z"/>
				</g>
			</g>
			<g>
				<polygon class="st12" points="759.5,277.79 758.72,277.43 759.48,276.9 				"/>
				<polygon class="st12" points="761.82,268.18 761.07,267.83 761.06,268.2 				"/>
				<polygon class="st12" points="757.28,275.54 756.5,275.18 758.01,273.86 				"/>
				<g>
					<path class="st12" d="M758.95,277.41l3.67-1.98c0.19-0.1,0.34-0.35,0.34-0.57l-0.01-3.9l-4.34,2.35l0.01,3.9
						C758.61,277.42,758.76,277.51,758.95,277.41z"/>
					<path class="st12" d="M761.08,267.84l3.96,2.34c0.17,0.1,0.03,0.47-0.22,0.61l-4.05,2.19l-4.05,2.19
						c-0.26,0.14-0.39-0.08-0.23-0.36l3.94-6.61C760.6,267.9,760.91,267.74,761.08,267.84z"/>
				</g>
				<g>
					<path class="st9" d="M759.73,277.77l3.67-1.98c0.19-0.1,0.34-0.35,0.34-0.57l-0.01-3.9l-4.34,2.35l0.01,3.9
						C759.4,277.78,759.55,277.87,759.73,277.77z"/>
					<path class="st9" d="M761.87,268.2l3.96,2.34c0.17,0.1,0.03,0.47-0.22,0.61l-4.05,2.19l-4.05,2.19
						c-0.26,0.14-0.39-0.08-0.23-0.36l3.94-6.61C761.39,268.27,761.69,268.1,761.87,268.2z"/>
				</g>
			</g>
		</g>
	</g>
</g>
</svg>
